<svg width="14" height="12" viewBox="0 0 14 12" fill="none" xmlns="http://www.w3.org/2000/svg">
<path fill-rule="evenodd" clip-rule="evenodd" d="M7.00002 0.178131C4.82501 0.178131 2.64476 0.545762 1.85368 1.27851C1.19733 1.88642 0.978539 2.96035 0.904787 3.64032C0.904787 3.64032 0.894623 3.70751 0.894623 3.73641C0.894623 4.00305 1.12352 4.21691 1.40338 4.21691C1.43645 4.21691 2.66008 4.12319 3.3978 4.06554C3.41555 4.06311 3.43344 4.06073 3.45119 4.05594C3.72596 4.04878 3.94732 3.8373 3.94732 3.57545L3.94979 2.62879C3.94979 2.33568 4.20173 2.10019 4.51211 2.10019H9.48791C9.79834 2.10019 10.0503 2.33565 10.0503 2.62879L10.0528 3.57545C10.0528 3.8373 10.2741 4.04878 10.5489 4.05594C10.5665 4.06076 10.5844 4.06311 10.6024 4.06554C11.3401 4.12316 12.5637 4.21691 12.5967 4.21691C12.8764 4.21691 13.1055 4.00305 13.1055 3.73641C13.1055 3.70751 13.0953 3.64032 13.0953 3.64032C13.0215 2.96035 12.803 1.88644 12.1466 1.27851C11.3553 0.545762 9.17504 0.178131 7.00002 0.178131ZM7.00002 6.42491C6.43781 6.42491 5.98245 6.85495 5.98245 7.38593C5.98245 7.91691 6.43781 8.34692 7.00002 8.34692C7.56224 8.34692 8.01757 7.91691 8.01757 7.38593C8.01757 6.85495 7.56224 6.42491 7.00002 6.42491ZM6.23686 4.26253V3.66189C6.23686 3.33036 5.9519 3.06126 5.60089 3.06126C5.24988 3.06126 4.96493 3.33039 4.96493 3.66189V4.26253L1.53302 7.72471C1.29653 7.94338 1.14895 8.24842 1.14895 8.58487V9.54832C1.14895 10.0793 1.60434 10.5093 2.16652 10.5093H2.42093V11.11C2.42093 11.4415 2.70592 11.7106 3.05692 11.7106C3.40793 11.7106 3.69289 11.4415 3.69289 11.11V10.5093H10.3072V11.11C10.3072 11.4415 10.592 11.7106 10.9432 11.7106C11.2942 11.7106 11.5791 11.4415 11.5791 11.11V10.5093H11.8335C12.3957 10.5093 12.851 10.0793 12.851 9.54832V8.58487C12.851 8.24839 12.7035 7.94335 12.467 7.72471L9.0352 4.26253V3.66189C9.0352 3.33036 8.75019 3.06126 8.39918 3.06126C8.04818 3.06126 7.76325 3.33039 7.76325 3.66189V4.26253H6.23686ZM7.00002 5.46387C8.12445 5.46387 9.0352 6.324 9.0352 7.38593C9.0352 8.44789 8.12448 9.30807 7.00002 9.30807C5.8756 9.30807 4.9649 8.44791 4.9649 7.38593C4.9649 6.32398 5.8756 5.46387 7.00002 5.46387Z" fill="white"/>
</svg>
